<mxfile host="Electron" agent="Mozilla/5.0 (Windows NT 10.0; Win64; x64) AppleWebKit/537.36 (KHTML, like Gecko) draw.io/26.0.16 Chrome/132.0.6834.196 Electron/34.2.0 Safari/537.36" version="26.0.16">
  <diagram name="1 oldal" id="ozqdmFruul4j5zL6X9_F">
    <mxGraphModel dx="1674" dy="844" grid="1" gridSize="10" guides="1" tooltips="1" connect="1" arrows="1" fold="1" page="1" pageScale="1" pageWidth="827" pageHeight="1169" math="0" shadow="0">
      <root>
        <mxCell id="0" />
        <mxCell id="1" parent="0" />
        <mxCell id="t_jVDYr7bIxkMFcBrNz5-1" value="Users" style="whiteSpace=wrap;html=1;align=center;" parent="1" vertex="1">
          <mxGeometry x="280" y="240" width="80" height="40" as="geometry" />
        </mxCell>
        <mxCell id="t_jVDYr7bIxkMFcBrNz5-3" value="id" style="ellipse;whiteSpace=wrap;html=1;align=center;fontStyle=4;" parent="1" vertex="1">
          <mxGeometry x="380" y="130" width="30" height="20" as="geometry" />
        </mxCell>
        <mxCell id="t_jVDYr7bIxkMFcBrNz5-4" value="email" style="ellipse;whiteSpace=wrap;html=1;align=center;" parent="1" vertex="1">
          <mxGeometry x="380" y="155" width="40" height="20" as="geometry" />
        </mxCell>
        <mxCell id="t_jVDYr7bIxkMFcBrNz5-5" value="fullname" style="ellipse;whiteSpace=wrap;html=1;align=center;" parent="1" vertex="1">
          <mxGeometry x="380" y="180" width="60" height="20" as="geometry" />
        </mxCell>
        <mxCell id="t_jVDYr7bIxkMFcBrNz5-6" value="birth_date" style="ellipse;whiteSpace=wrap;html=1;align=center;" parent="1" vertex="1">
          <mxGeometry x="380" y="240" width="60" height="20" as="geometry" />
        </mxCell>
        <mxCell id="t_jVDYr7bIxkMFcBrNz5-7" value="password" style="ellipse;whiteSpace=wrap;html=1;align=center;" parent="1" vertex="1">
          <mxGeometry x="380" y="210" width="60" height="20" as="geometry" />
        </mxCell>
        <mxCell id="t_jVDYr7bIxkMFcBrNz5-8" value="company" style="ellipse;whiteSpace=wrap;html=1;align=center;" parent="1" vertex="1">
          <mxGeometry x="380" y="265" width="70" height="20" as="geometry" />
        </mxCell>
        <mxCell id="t_jVDYr7bIxkMFcBrNz5-9" value="picture_url" style="ellipse;whiteSpace=wrap;html=1;align=center;" parent="1" vertex="1">
          <mxGeometry x="385" y="290" width="65" height="20" as="geometry" />
        </mxCell>
        <mxCell id="t_jVDYr7bIxkMFcBrNz5-10" value="registered_at" style="ellipse;whiteSpace=wrap;html=1;align=center;" parent="1" vertex="1">
          <mxGeometry x="380" y="315" width="80" height="20" as="geometry" />
        </mxCell>
        <mxCell id="t_jVDYr7bIxkMFcBrNz5-11" value="" style="endArrow=none;html=1;rounded=0;entryX=0;entryY=0.5;entryDx=0;entryDy=0;" parent="1" target="t_jVDYr7bIxkMFcBrNz5-3" edge="1">
          <mxGeometry relative="1" as="geometry">
            <mxPoint x="360" y="260" as="sourcePoint" />
            <mxPoint x="300" y="339.66" as="targetPoint" />
            <Array as="points">
              <mxPoint x="360" y="260" />
            </Array>
          </mxGeometry>
        </mxCell>
        <mxCell id="t_jVDYr7bIxkMFcBrNz5-12" value="" style="endArrow=none;html=1;rounded=0;entryX=0;entryY=0.5;entryDx=0;entryDy=0;" parent="1" target="t_jVDYr7bIxkMFcBrNz5-4" edge="1">
          <mxGeometry relative="1" as="geometry">
            <mxPoint x="360" y="260" as="sourcePoint" />
            <mxPoint x="410" y="170" as="targetPoint" />
            <Array as="points">
              <mxPoint x="360" y="260" />
            </Array>
          </mxGeometry>
        </mxCell>
        <mxCell id="t_jVDYr7bIxkMFcBrNz5-13" value="" style="endArrow=none;html=1;rounded=0;entryX=0;entryY=0.5;entryDx=0;entryDy=0;" parent="1" target="t_jVDYr7bIxkMFcBrNz5-5" edge="1">
          <mxGeometry relative="1" as="geometry">
            <mxPoint x="360" y="260" as="sourcePoint" />
            <mxPoint x="420" y="180" as="targetPoint" />
            <Array as="points">
              <mxPoint x="360" y="260" />
            </Array>
          </mxGeometry>
        </mxCell>
        <mxCell id="t_jVDYr7bIxkMFcBrNz5-14" value="" style="endArrow=none;html=1;rounded=0;entryX=0;entryY=0.5;entryDx=0;entryDy=0;" parent="1" target="t_jVDYr7bIxkMFcBrNz5-6" edge="1">
          <mxGeometry relative="1" as="geometry">
            <mxPoint x="360" y="260" as="sourcePoint" />
            <mxPoint x="430" y="190" as="targetPoint" />
            <Array as="points">
              <mxPoint x="360" y="260" />
            </Array>
          </mxGeometry>
        </mxCell>
        <mxCell id="t_jVDYr7bIxkMFcBrNz5-15" value="" style="endArrow=none;html=1;rounded=0;entryX=0;entryY=0.5;entryDx=0;entryDy=0;" parent="1" target="t_jVDYr7bIxkMFcBrNz5-7" edge="1">
          <mxGeometry relative="1" as="geometry">
            <mxPoint x="360" y="260" as="sourcePoint" />
            <mxPoint x="440" y="200" as="targetPoint" />
            <Array as="points">
              <mxPoint x="360" y="260" />
            </Array>
          </mxGeometry>
        </mxCell>
        <mxCell id="t_jVDYr7bIxkMFcBrNz5-16" value="" style="endArrow=none;html=1;rounded=0;entryX=0;entryY=0.5;entryDx=0;entryDy=0;" parent="1" target="t_jVDYr7bIxkMFcBrNz5-8" edge="1">
          <mxGeometry relative="1" as="geometry">
            <mxPoint x="360" y="260" as="sourcePoint" />
            <mxPoint x="450" y="210" as="targetPoint" />
            <Array as="points">
              <mxPoint x="360" y="260" />
            </Array>
          </mxGeometry>
        </mxCell>
        <mxCell id="t_jVDYr7bIxkMFcBrNz5-17" value="" style="endArrow=none;html=1;rounded=0;entryX=0;entryY=0.5;entryDx=0;entryDy=0;" parent="1" target="t_jVDYr7bIxkMFcBrNz5-9" edge="1">
          <mxGeometry relative="1" as="geometry">
            <mxPoint x="360" y="260" as="sourcePoint" />
            <mxPoint x="460" y="220" as="targetPoint" />
            <Array as="points">
              <mxPoint x="360" y="260" />
            </Array>
          </mxGeometry>
        </mxCell>
        <mxCell id="t_jVDYr7bIxkMFcBrNz5-18" value="" style="endArrow=none;html=1;rounded=0;entryX=0;entryY=0.5;entryDx=0;entryDy=0;" parent="1" target="t_jVDYr7bIxkMFcBrNz5-10" edge="1">
          <mxGeometry relative="1" as="geometry">
            <mxPoint x="360" y="260" as="sourcePoint" />
            <mxPoint x="470" y="230" as="targetPoint" />
            <Array as="points">
              <mxPoint x="360" y="260" />
            </Array>
          </mxGeometry>
        </mxCell>
        <mxCell id="t_jVDYr7bIxkMFcBrNz5-21" value="pending" style="ellipse;whiteSpace=wrap;html=1;align=center;" parent="1" vertex="1">
          <mxGeometry x="74.62" y="155" width="59.25" height="20" as="geometry" />
        </mxCell>
        <mxCell id="t_jVDYr7bIxkMFcBrNz5-23" value="id" style="ellipse;whiteSpace=wrap;html=1;align=center;fontStyle=4;" parent="1" vertex="1">
          <mxGeometry x="84.25" y="125" width="35.5" height="20" as="geometry" />
        </mxCell>
        <mxCell id="t_jVDYr7bIxkMFcBrNz5-24" value="" style="endArrow=none;html=1;rounded=0;exitX=0;exitY=0.5;exitDx=0;exitDy=0;entryX=1;entryY=0.5;entryDx=0;entryDy=0;" parent="1" target="t_jVDYr7bIxkMFcBrNz5-23" edge="1">
          <mxGeometry relative="1" as="geometry">
            <mxPoint x="150" y="169.9999999999999" as="sourcePoint" />
            <mxPoint x="256.5" y="75" as="targetPoint" />
            <Array as="points" />
          </mxGeometry>
        </mxCell>
        <mxCell id="t_jVDYr7bIxkMFcBrNz5-33" value="Messages" style="whiteSpace=wrap;html=1;align=center;" parent="1" vertex="1">
          <mxGeometry x="92.5" y="305" width="80" height="30" as="geometry" />
        </mxCell>
        <mxCell id="t_jVDYr7bIxkMFcBrNz5-38" value="id" style="ellipse;whiteSpace=wrap;html=1;align=center;fontStyle=4;" parent="1" vertex="1">
          <mxGeometry x="74.62" y="350" width="25" height="20" as="geometry" />
        </mxCell>
        <mxCell id="t_jVDYr7bIxkMFcBrNz5-40" value="when" style="ellipse;whiteSpace=wrap;html=1;align=center;" parent="1" vertex="1">
          <mxGeometry x="167.12" y="350" width="40" height="20" as="geometry" />
        </mxCell>
        <mxCell id="t_jVDYr7bIxkMFcBrNz5-41" value="" style="endArrow=none;html=1;rounded=0;entryX=0.5;entryY=0;entryDx=0;entryDy=0;exitX=0.5;exitY=1;exitDx=0;exitDy=0;" parent="1" source="t_jVDYr7bIxkMFcBrNz5-33" target="t_jVDYr7bIxkMFcBrNz5-40" edge="1">
          <mxGeometry relative="1" as="geometry">
            <mxPoint x="197.5" y="430" as="sourcePoint" />
            <mxPoint x="247.5" y="460" as="targetPoint" />
            <Array as="points" />
          </mxGeometry>
        </mxCell>
        <mxCell id="t_jVDYr7bIxkMFcBrNz5-42" value="text" style="ellipse;whiteSpace=wrap;html=1;align=center;" parent="1" vertex="1">
          <mxGeometry x="107.12" y="350" width="50" height="20" as="geometry" />
        </mxCell>
        <mxCell id="t_jVDYr7bIxkMFcBrNz5-46" value="Interests" style="whiteSpace=wrap;html=1;align=center;" parent="1" vertex="1">
          <mxGeometry x="64" y="230" width="62.5" height="30" as="geometry" />
        </mxCell>
        <mxCell id="t_jVDYr7bIxkMFcBrNz5-47" value="User_Interests" style="shape=rhombus;perimeter=rhombusPerimeter;whiteSpace=wrap;html=1;align=center;" parent="1" vertex="1">
          <mxGeometry x="147.5" y="245" width="100" height="45" as="geometry" />
        </mxCell>
        <mxCell id="t_jVDYr7bIxkMFcBrNz5-54" value="id" style="ellipse;whiteSpace=wrap;html=1;align=center;fontStyle=4;" parent="1" vertex="1">
          <mxGeometry x="64.25" y="270" width="30" height="20" as="geometry" />
        </mxCell>
        <mxCell id="t_jVDYr7bIxkMFcBrNz5-58" value="name" style="ellipse;whiteSpace=wrap;html=1;align=center;" parent="1" vertex="1">
          <mxGeometry x="106.75" y="270" width="40" height="20" as="geometry" />
        </mxCell>
        <mxCell id="t_jVDYr7bIxkMFcBrNz5-64" value="" style="endArrow=none;html=1;rounded=0;entryX=0.5;entryY=0;entryDx=0;entryDy=0;exitX=0.5;exitY=1;exitDx=0;exitDy=0;" parent="1" source="t_jVDYr7bIxkMFcBrNz5-33" target="t_jVDYr7bIxkMFcBrNz5-42" edge="1">
          <mxGeometry relative="1" as="geometry">
            <mxPoint x="157.5" y="420" as="sourcePoint" />
            <mxPoint x="67.5" y="450" as="targetPoint" />
            <Array as="points" />
          </mxGeometry>
        </mxCell>
        <mxCell id="t_jVDYr7bIxkMFcBrNz5-65" value="" style="endArrow=none;html=1;rounded=0;entryX=0.5;entryY=0;entryDx=0;entryDy=0;exitX=0.5;exitY=1;exitDx=0;exitDy=0;" parent="1" source="t_jVDYr7bIxkMFcBrNz5-33" target="t_jVDYr7bIxkMFcBrNz5-38" edge="1">
          <mxGeometry relative="1" as="geometry">
            <mxPoint x="157.5" y="420" as="sourcePoint" />
            <mxPoint x="67.5" y="450" as="targetPoint" />
            <Array as="points" />
          </mxGeometry>
        </mxCell>
        <mxCell id="t_jVDYr7bIxkMFcBrNz5-68" value="Comments" style="whiteSpace=wrap;html=1;align=center;" parent="1" vertex="1">
          <mxGeometry x="167.5" y="60" width="80" height="30" as="geometry" />
        </mxCell>
        <mxCell id="t_jVDYr7bIxkMFcBrNz5-73" value="id" style="ellipse;whiteSpace=wrap;html=1;align=center;fontStyle=4;" parent="1" vertex="1">
          <mxGeometry x="231.75" y="30" width="30" height="20" as="geometry" />
        </mxCell>
        <mxCell id="t_jVDYr7bIxkMFcBrNz5-75" value="text" style="ellipse;whiteSpace=wrap;html=1;align=center;" parent="1" vertex="1">
          <mxGeometry x="161.75" y="30" width="50" height="20" as="geometry" />
        </mxCell>
        <mxCell id="t_jVDYr7bIxkMFcBrNz5-78" value="" style="endArrow=none;html=1;rounded=0;entryX=0.5;entryY=1;entryDx=0;entryDy=0;exitX=0.5;exitY=0;exitDx=0;exitDy=0;" parent="1" source="t_jVDYr7bIxkMFcBrNz5-68" target="t_jVDYr7bIxkMFcBrNz5-75" edge="1">
          <mxGeometry relative="1" as="geometry">
            <mxPoint x="217.5" y="20" as="sourcePoint" />
            <mxPoint x="57.5" y="50" as="targetPoint" />
            <Array as="points" />
          </mxGeometry>
        </mxCell>
        <mxCell id="t_jVDYr7bIxkMFcBrNz5-79" value="" style="endArrow=none;html=1;rounded=0;entryX=0.5;entryY=1;entryDx=0;entryDy=0;exitX=0.5;exitY=0;exitDx=0;exitDy=0;" parent="1" source="t_jVDYr7bIxkMFcBrNz5-68" target="t_jVDYr7bIxkMFcBrNz5-73" edge="1">
          <mxGeometry relative="1" as="geometry">
            <mxPoint x="217.5" y="20" as="sourcePoint" />
            <mxPoint x="197.5" y="50" as="targetPoint" />
            <Array as="points" />
          </mxGeometry>
        </mxCell>
        <mxCell id="t_jVDYr7bIxkMFcBrNz5-88" value="image_url" style="ellipse;whiteSpace=wrap;html=1;align=center;" parent="1" vertex="1">
          <mxGeometry x="457.5" y="30" width="70" height="20" as="geometry" />
        </mxCell>
        <mxCell id="t_jVDYr7bIxkMFcBrNz5-89" value="id" style="ellipse;whiteSpace=wrap;html=1;align=center;fontStyle=4;" parent="1" vertex="1">
          <mxGeometry x="422.5" y="30" width="30" height="20" as="geometry" />
        </mxCell>
        <mxCell id="t_jVDYr7bIxkMFcBrNz5-91" value="text" style="ellipse;whiteSpace=wrap;html=1;align=center;" parent="1" vertex="1">
          <mxGeometry x="372.5" y="30" width="40" height="20" as="geometry" />
        </mxCell>
        <mxCell id="t_jVDYr7bIxkMFcBrNz5-94" value="" style="endArrow=none;html=1;rounded=0;entryX=0.5;entryY=1;entryDx=0;entryDy=0;exitX=0.5;exitY=0;exitDx=0;exitDy=0;" parent="1" source="t_jVDYr7bIxkMFcBrNz5-82" target="t_jVDYr7bIxkMFcBrNz5-91" edge="1">
          <mxGeometry relative="1" as="geometry">
            <mxPoint x="538.5" y="50" as="sourcePoint" />
            <mxPoint x="368.5" y="50" as="targetPoint" />
            <Array as="points" />
          </mxGeometry>
        </mxCell>
        <mxCell id="t_jVDYr7bIxkMFcBrNz5-95" value="" style="endArrow=none;html=1;rounded=0;entryX=0.5;entryY=1;entryDx=0;entryDy=0;exitX=0.5;exitY=0;exitDx=0;exitDy=0;" parent="1" source="t_jVDYr7bIxkMFcBrNz5-82" target="t_jVDYr7bIxkMFcBrNz5-89" edge="1">
          <mxGeometry relative="1" as="geometry">
            <mxPoint x="538.5" y="50" as="sourcePoint" />
            <mxPoint x="508.5" y="50" as="targetPoint" />
            <Array as="points" />
          </mxGeometry>
        </mxCell>
        <mxCell id="t_jVDYr7bIxkMFcBrNz5-97" value="" style="endArrow=none;html=1;rounded=0;entryX=0.5;entryY=1;entryDx=0;entryDy=0;exitX=0.5;exitY=0;exitDx=0;exitDy=0;" parent="1" source="t_jVDYr7bIxkMFcBrNz5-82" target="t_jVDYr7bIxkMFcBrNz5-88" edge="1">
          <mxGeometry relative="1" as="geometry">
            <mxPoint x="538.5" y="50" as="sourcePoint" />
            <mxPoint x="648.5" y="50" as="targetPoint" />
            <Array as="points" />
          </mxGeometry>
        </mxCell>
        <mxCell id="t_jVDYr7bIxkMFcBrNz5-98" value="" style="endArrow=ERzeroToMany;startArrow=ERmandOne;html=1;rounded=0;exitX=0;exitY=0.5;exitDx=0;exitDy=0;entryX=1;entryY=0.5;entryDx=0;entryDy=0;" parent="1" target="t_jVDYr7bIxkMFcBrNz5-82" edge="1">
          <mxGeometry width="50" height="50" relative="1" as="geometry">
            <mxPoint x="448.4999999999998" y="70" as="sourcePoint" />
            <mxPoint x="308.5" y="70" as="targetPoint" />
            <Array as="points" />
          </mxGeometry>
        </mxCell>
        <mxCell id="t_jVDYr7bIxkMFcBrNz5-82" value="Posts" style="whiteSpace=wrap;html=1;align=center;" parent="1" vertex="1">
          <mxGeometry x="408.5" y="60" width="80" height="30" as="geometry" />
        </mxCell>
        <mxCell id="t_jVDYr7bIxkMFcBrNz5-100" value="Groups" style="whiteSpace=wrap;html=1;align=center;" parent="1" vertex="1">
          <mxGeometry x="465" y="290" width="60" height="30" as="geometry" />
        </mxCell>
        <mxCell id="t_jVDYr7bIxkMFcBrNz5-102" value="Group_Messages" style="whiteSpace=wrap;html=1;align=center;" parent="1" vertex="1">
          <mxGeometry x="267.5" y="437.5" width="105" height="32.5" as="geometry" />
        </mxCell>
        <mxCell id="t_jVDYr7bIxkMFcBrNz5-103" value="User_Groups" style="shape=rhombus;perimeter=rhombusPerimeter;whiteSpace=wrap;html=1;align=center;" parent="1" vertex="1">
          <mxGeometry x="425" y="365" width="90" height="50" as="geometry" />
        </mxCell>
        <mxCell id="t_jVDYr7bIxkMFcBrNz5-105" style="edgeStyle=orthogonalEdgeStyle;rounded=0;orthogonalLoop=1;jettySize=auto;html=1;endArrow=none;endFill=0;startArrow=none;startFill=0;exitX=0;exitY=0.5;exitDx=0;exitDy=0;" parent="1" source="t_jVDYr7bIxkMFcBrNz5-103" edge="1">
          <mxGeometry relative="1" as="geometry">
            <Array as="points">
              <mxPoint x="350" y="390" />
            </Array>
            <mxPoint x="340" y="377.75" as="sourcePoint" />
            <mxPoint x="350" y="280" as="targetPoint" />
          </mxGeometry>
        </mxCell>
        <mxCell id="t_jVDYr7bIxkMFcBrNz5-119" value="id" style="ellipse;whiteSpace=wrap;html=1;align=center;fontStyle=4;" parent="1" vertex="1">
          <mxGeometry x="460" y="250" width="40" height="20" as="geometry" />
        </mxCell>
        <mxCell id="t_jVDYr7bIxkMFcBrNz5-121" value="name" style="ellipse;whiteSpace=wrap;html=1;align=center;" parent="1" vertex="1">
          <mxGeometry x="505" y="257.5" width="40" height="20" as="geometry" />
        </mxCell>
        <mxCell id="t_jVDYr7bIxkMFcBrNz5-135" value="last_login" style="ellipse;whiteSpace=wrap;html=1;align=center;" parent="1" vertex="1">
          <mxGeometry x="380" y="340" width="70" height="20" as="geometry" />
        </mxCell>
        <mxCell id="t_jVDYr7bIxkMFcBrNz5-136" value="" style="endArrow=none;html=1;rounded=0;entryX=0;entryY=0.5;entryDx=0;entryDy=0;" parent="1" target="t_jVDYr7bIxkMFcBrNz5-135" edge="1">
          <mxGeometry relative="1" as="geometry">
            <mxPoint x="360" y="260" as="sourcePoint" />
            <mxPoint x="390" y="260" as="targetPoint" />
            <Array as="points">
              <mxPoint x="360" y="260" />
            </Array>
          </mxGeometry>
        </mxCell>
        <mxCell id="t_jVDYr7bIxkMFcBrNz5-138" value="id" style="ellipse;whiteSpace=wrap;html=1;align=center;fontStyle=4;" parent="1" vertex="1">
          <mxGeometry x="225" y="395" width="25" height="20" as="geometry" />
        </mxCell>
        <mxCell id="t_jVDYr7bIxkMFcBrNz5-139" value="when" style="ellipse;whiteSpace=wrap;html=1;align=center;" parent="1" vertex="1">
          <mxGeometry x="185" y="443.75" width="40" height="20" as="geometry" />
        </mxCell>
        <mxCell id="t_jVDYr7bIxkMFcBrNz5-141" value="text" style="ellipse;whiteSpace=wrap;html=1;align=center;" parent="1" vertex="1">
          <mxGeometry x="187.5" y="416.25" width="50" height="20" as="geometry" />
        </mxCell>
        <mxCell id="iR1NlopD8SsoDXJi6yZR-7" style="edgeStyle=orthogonalEdgeStyle;rounded=0;orthogonalLoop=1;jettySize=auto;html=1;exitX=0;exitY=0.5;exitDx=0;exitDy=0;entryX=0.75;entryY=0;entryDx=0;entryDy=0;" parent="1" source="X91fcPXa7yg3iF7Zx-aR-29" target="t_jVDYr7bIxkMFcBrNz5-1" edge="1">
          <mxGeometry relative="1" as="geometry" />
        </mxCell>
        <mxCell id="X91fcPXa7yg3iF7Zx-aR-29" value="közzétesz" style="rhombus;whiteSpace=wrap;html=1;" parent="1" vertex="1">
          <mxGeometry x="410.5" y="100" width="76" height="40" as="geometry" />
        </mxCell>
        <mxCell id="X91fcPXa7yg3iF7Zx-aR-32" value="" style="endArrow=none;html=1;rounded=0;entryX=0;entryY=0.75;entryDx=0;entryDy=0;exitX=1;exitY=0.5;exitDx=0;exitDy=0;" parent="1" source="t_jVDYr7bIxkMFcBrNz5-47" target="t_jVDYr7bIxkMFcBrNz5-1" edge="1">
          <mxGeometry width="50" height="50" relative="1" as="geometry">
            <mxPoint x="242.5" y="360" as="sourcePoint" />
            <mxPoint x="292.5" y="310" as="targetPoint" />
          </mxGeometry>
        </mxCell>
        <mxCell id="iR1NlopD8SsoDXJi6yZR-1" style="edgeStyle=orthogonalEdgeStyle;rounded=0;orthogonalLoop=1;jettySize=auto;html=1;exitX=1;exitY=0.5;exitDx=0;exitDy=0;entryX=0.25;entryY=1;entryDx=0;entryDy=0;" parent="1" source="X91fcPXa7yg3iF7Zx-aR-38" target="t_jVDYr7bIxkMFcBrNz5-1" edge="1">
          <mxGeometry relative="1" as="geometry">
            <Array as="points">
              <mxPoint x="255" y="320" />
              <mxPoint x="300" y="320" />
            </Array>
          </mxGeometry>
        </mxCell>
        <mxCell id="X91fcPXa7yg3iF7Zx-aR-38" value="elküldi" style="rhombus;whiteSpace=wrap;html=1;" parent="1" vertex="1">
          <mxGeometry x="200" y="300" width="55" height="40" as="geometry" />
        </mxCell>
        <mxCell id="X91fcPXa7yg3iF7Zx-aR-40" value="" style="endArrow=none;html=1;rounded=0;exitX=0;exitY=0.5;exitDx=0;exitDy=0;entryX=1;entryY=0.5;entryDx=0;entryDy=0;" parent="1" source="X91fcPXa7yg3iF7Zx-aR-38" target="t_jVDYr7bIxkMFcBrNz5-33" edge="1">
          <mxGeometry width="50" height="50" relative="1" as="geometry">
            <mxPoint x="320" y="330" as="sourcePoint" />
            <mxPoint x="370" y="280" as="targetPoint" />
          </mxGeometry>
        </mxCell>
        <mxCell id="X91fcPXa7yg3iF7Zx-aR-45" value="when" style="ellipse;whiteSpace=wrap;html=1;align=center;" parent="1" vertex="1">
          <mxGeometry x="80.75" y="185" width="47" height="20" as="geometry" />
        </mxCell>
        <mxCell id="X91fcPXa7yg3iF7Zx-aR-48" value="" style="endArrow=none;html=1;rounded=0;exitX=0;exitY=0.5;exitDx=0;exitDy=0;entryX=1;entryY=0.5;entryDx=0;entryDy=0;" parent="1" target="t_jVDYr7bIxkMFcBrNz5-21" edge="1">
          <mxGeometry relative="1" as="geometry">
            <mxPoint x="150" y="169.9999999999999" as="sourcePoint" />
            <mxPoint x="136.5" y="125" as="targetPoint" />
            <Array as="points" />
          </mxGeometry>
        </mxCell>
        <mxCell id="X91fcPXa7yg3iF7Zx-aR-49" value="" style="endArrow=none;html=1;rounded=0;exitX=0;exitY=0.5;exitDx=0;exitDy=0;entryX=1;entryY=0.5;entryDx=0;entryDy=0;" parent="1" target="X91fcPXa7yg3iF7Zx-aR-45" edge="1">
          <mxGeometry relative="1" as="geometry">
            <mxPoint x="150" y="169.9999999999999" as="sourcePoint" />
            <mxPoint x="146.5" y="135" as="targetPoint" />
            <Array as="points" />
          </mxGeometry>
        </mxCell>
        <mxCell id="iR1NlopD8SsoDXJi6yZR-4" style="edgeStyle=orthogonalEdgeStyle;rounded=0;orthogonalLoop=1;jettySize=auto;html=1;exitX=0.5;exitY=0;exitDx=0;exitDy=0;entryX=0.75;entryY=1;entryDx=0;entryDy=0;" parent="1" source="X91fcPXa7yg3iF7Zx-aR-52" target="t_jVDYr7bIxkMFcBrNz5-1" edge="1">
          <mxGeometry relative="1" as="geometry">
            <Array as="points">
              <mxPoint x="320" y="360" />
              <mxPoint x="340" y="360" />
            </Array>
          </mxGeometry>
        </mxCell>
        <mxCell id="X91fcPXa7yg3iF7Zx-aR-52" value="elküldi" style="rhombus;whiteSpace=wrap;html=1;" parent="1" vertex="1">
          <mxGeometry x="292.5" y="380" width="55" height="40" as="geometry" />
        </mxCell>
        <mxCell id="X91fcPXa7yg3iF7Zx-aR-57" value="pending" style="ellipse;whiteSpace=wrap;html=1;align=center;" parent="1" vertex="1">
          <mxGeometry x="395" y="420" width="65" height="20" as="geometry" />
        </mxCell>
        <mxCell id="X91fcPXa7yg3iF7Zx-aR-58" value="role" style="ellipse;whiteSpace=wrap;html=1;align=center;" parent="1" vertex="1">
          <mxGeometry x="475" y="420" width="40" height="20" as="geometry" />
        </mxCell>
        <mxCell id="X91fcPXa7yg3iF7Zx-aR-69" value="" style="endArrow=none;html=1;rounded=0;entryX=0.5;entryY=1;entryDx=0;entryDy=0;exitX=0.5;exitY=0;exitDx=0;exitDy=0;" parent="1" source="t_jVDYr7bIxkMFcBrNz5-103" target="t_jVDYr7bIxkMFcBrNz5-100" edge="1">
          <mxGeometry width="50" height="50" relative="1" as="geometry">
            <mxPoint x="380" y="370" as="sourcePoint" />
            <mxPoint x="430" y="320" as="targetPoint" />
            <Array as="points" />
          </mxGeometry>
        </mxCell>
        <mxCell id="X91fcPXa7yg3iF7Zx-aR-71" value="" style="endArrow=none;html=1;rounded=0;entryX=0.5;entryY=0;entryDx=0;entryDy=0;exitX=0.5;exitY=1;exitDx=0;exitDy=0;" parent="1" source="t_jVDYr7bIxkMFcBrNz5-103" target="X91fcPXa7yg3iF7Zx-aR-57" edge="1">
          <mxGeometry width="50" height="50" relative="1" as="geometry">
            <mxPoint x="470" y="420" as="sourcePoint" />
            <mxPoint x="540" y="420" as="targetPoint" />
          </mxGeometry>
        </mxCell>
        <mxCell id="X91fcPXa7yg3iF7Zx-aR-72" value="" style="endArrow=none;html=1;rounded=0;entryX=0.5;entryY=0;entryDx=0;entryDy=0;exitX=0.5;exitY=1;exitDx=0;exitDy=0;" parent="1" source="t_jVDYr7bIxkMFcBrNz5-103" target="X91fcPXa7yg3iF7Zx-aR-58" edge="1">
          <mxGeometry width="50" height="50" relative="1" as="geometry">
            <mxPoint x="480" y="425" as="sourcePoint" />
            <mxPoint x="445" y="450" as="targetPoint" />
          </mxGeometry>
        </mxCell>
        <mxCell id="iR1NlopD8SsoDXJi6yZR-9" style="edgeStyle=orthogonalEdgeStyle;rounded=0;orthogonalLoop=1;jettySize=auto;html=1;exitX=1;exitY=0.5;exitDx=0;exitDy=0;entryX=0.5;entryY=0;entryDx=0;entryDy=0;" parent="1" source="X91fcPXa7yg3iF7Zx-aR-77" target="t_jVDYr7bIxkMFcBrNz5-1" edge="1">
          <mxGeometry relative="1" as="geometry">
            <Array as="points">
              <mxPoint x="320" y="140" />
            </Array>
          </mxGeometry>
        </mxCell>
        <mxCell id="X91fcPXa7yg3iF7Zx-aR-77" value="hozzászól" style="rhombus;whiteSpace=wrap;html=1;" parent="1" vertex="1">
          <mxGeometry x="230" y="120" width="80" height="40" as="geometry" />
        </mxCell>
        <mxCell id="X91fcPXa7yg3iF7Zx-aR-80" value="" style="endArrow=none;html=1;rounded=0;entryX=0.5;entryY=1;entryDx=0;entryDy=0;exitX=0.5;exitY=0;exitDx=0;exitDy=0;" parent="1" source="t_jVDYr7bIxkMFcBrNz5-100" target="t_jVDYr7bIxkMFcBrNz5-119" edge="1">
          <mxGeometry width="50" height="50" relative="1" as="geometry">
            <mxPoint x="385" y="330" as="sourcePoint" />
            <mxPoint x="435" y="280" as="targetPoint" />
          </mxGeometry>
        </mxCell>
        <mxCell id="X91fcPXa7yg3iF7Zx-aR-81" value="" style="endArrow=none;html=1;rounded=0;entryX=0.5;entryY=1;entryDx=0;entryDy=0;exitX=0.5;exitY=0;exitDx=0;exitDy=0;" parent="1" source="t_jVDYr7bIxkMFcBrNz5-100" target="t_jVDYr7bIxkMFcBrNz5-121" edge="1">
          <mxGeometry width="50" height="50" relative="1" as="geometry">
            <mxPoint x="515" y="290" as="sourcePoint" />
            <mxPoint x="480" y="255" as="targetPoint" />
          </mxGeometry>
        </mxCell>
        <mxCell id="iR1NlopD8SsoDXJi6yZR-25" style="edgeStyle=orthogonalEdgeStyle;rounded=0;orthogonalLoop=1;jettySize=auto;html=1;exitX=1;exitY=0.5;exitDx=0;exitDy=0;entryX=0;entryY=0.5;entryDx=0;entryDy=0;" parent="1" source="X91fcPXa7yg3iF7Zx-aR-88" target="t_jVDYr7bIxkMFcBrNz5-82" edge="1">
          <mxGeometry relative="1" as="geometry" />
        </mxCell>
        <mxCell id="X91fcPXa7yg3iF7Zx-aR-88" value="tartozik" style="rhombus;whiteSpace=wrap;html=1;" parent="1" vertex="1">
          <mxGeometry x="285.75" y="52.5" width="68.5" height="45" as="geometry" />
        </mxCell>
        <mxCell id="iR1NlopD8SsoDXJi6yZR-2" style="edgeStyle=orthogonalEdgeStyle;rounded=0;orthogonalLoop=1;jettySize=auto;html=1;exitX=0.5;exitY=0;exitDx=0;exitDy=0;entryX=0.5;entryY=1;entryDx=0;entryDy=0;" parent="1" source="X91fcPXa7yg3iF7Zx-aR-90" target="t_jVDYr7bIxkMFcBrNz5-1" edge="1">
          <mxGeometry relative="1" as="geometry">
            <Array as="points">
              <mxPoint x="265" y="340" />
              <mxPoint x="320" y="340" />
            </Array>
          </mxGeometry>
        </mxCell>
        <mxCell id="X91fcPXa7yg3iF7Zx-aR-90" value="fogadja" style="rhombus;whiteSpace=wrap;html=1;" parent="1" vertex="1">
          <mxGeometry x="237.5" y="340" width="55" height="40" as="geometry" />
        </mxCell>
        <mxCell id="X91fcPXa7yg3iF7Zx-aR-92" value="" style="endArrow=none;html=1;rounded=0;exitX=0;exitY=0.5;exitDx=0;exitDy=0;entryX=1;entryY=0.5;entryDx=0;entryDy=0;" parent="1" source="X91fcPXa7yg3iF7Zx-aR-90" target="t_jVDYr7bIxkMFcBrNz5-33" edge="1">
          <mxGeometry width="50" height="50" relative="1" as="geometry">
            <mxPoint x="340" y="390" as="sourcePoint" />
            <mxPoint x="200" y="361" as="targetPoint" />
            <Array as="points" />
          </mxGeometry>
        </mxCell>
        <mxCell id="X91fcPXa7yg3iF7Zx-aR-97" value="" style="endArrow=none;html=1;rounded=0;entryX=0.5;entryY=1;entryDx=0;entryDy=0;exitX=0;exitY=0.5;exitDx=0;exitDy=0;" parent="1" source="t_jVDYr7bIxkMFcBrNz5-102" target="t_jVDYr7bIxkMFcBrNz5-138" edge="1">
          <mxGeometry width="50" height="50" relative="1" as="geometry">
            <mxPoint x="267.5" y="465" as="sourcePoint" />
            <mxPoint x="304" y="495" as="targetPoint" />
          </mxGeometry>
        </mxCell>
        <mxCell id="X91fcPXa7yg3iF7Zx-aR-98" value="" style="endArrow=none;html=1;rounded=0;entryX=1;entryY=1;entryDx=0;entryDy=0;exitX=0;exitY=0.5;exitDx=0;exitDy=0;" parent="1" source="t_jVDYr7bIxkMFcBrNz5-102" target="t_jVDYr7bIxkMFcBrNz5-141" edge="1">
          <mxGeometry width="50" height="50" relative="1" as="geometry">
            <mxPoint x="267.5" y="465" as="sourcePoint" />
            <mxPoint x="264" y="435" as="targetPoint" />
          </mxGeometry>
        </mxCell>
        <mxCell id="X91fcPXa7yg3iF7Zx-aR-99" value="" style="endArrow=none;html=1;rounded=0;entryX=1;entryY=0.5;entryDx=0;entryDy=0;exitX=0;exitY=0.5;exitDx=0;exitDy=0;" parent="1" source="t_jVDYr7bIxkMFcBrNz5-102" target="t_jVDYr7bIxkMFcBrNz5-139" edge="1">
          <mxGeometry width="50" height="50" relative="1" as="geometry">
            <mxPoint x="267.5" y="465" as="sourcePoint" />
            <mxPoint x="274" y="445" as="targetPoint" />
          </mxGeometry>
        </mxCell>
        <mxCell id="X91fcPXa7yg3iF7Zx-aR-110" value="" style="endArrow=none;html=1;rounded=0;entryX=0.5;entryY=1;entryDx=0;entryDy=0;exitX=0.5;exitY=0;exitDx=0;exitDy=0;" parent="1" source="t_jVDYr7bIxkMFcBrNz5-58" target="t_jVDYr7bIxkMFcBrNz5-46" edge="1">
          <mxGeometry width="50" height="50" relative="1" as="geometry">
            <mxPoint x="276.5" y="310" as="sourcePoint" />
            <mxPoint x="326.5" y="260" as="targetPoint" />
          </mxGeometry>
        </mxCell>
        <mxCell id="X91fcPXa7yg3iF7Zx-aR-114" value="" style="endArrow=none;html=1;rounded=0;exitX=1;exitY=0.5;exitDx=0;exitDy=0;entryX=0;entryY=0.5;entryDx=0;entryDy=0;" parent="1" source="t_jVDYr7bIxkMFcBrNz5-68" target="X91fcPXa7yg3iF7Zx-aR-88" edge="1">
          <mxGeometry width="50" height="50" relative="1" as="geometry">
            <mxPoint x="370" y="270" as="sourcePoint" />
            <mxPoint x="360" y="80" as="targetPoint" />
          </mxGeometry>
        </mxCell>
        <mxCell id="iR1NlopD8SsoDXJi6yZR-27" style="edgeStyle=orthogonalEdgeStyle;rounded=0;orthogonalLoop=1;jettySize=auto;html=1;exitX=0.5;exitY=0;exitDx=0;exitDy=0;entryX=1;entryY=0.5;entryDx=0;entryDy=0;" parent="1" source="X91fcPXa7yg3iF7Zx-aR-116" target="t_jVDYr7bIxkMFcBrNz5-100" edge="1">
          <mxGeometry relative="1" as="geometry" />
        </mxCell>
        <mxCell id="X91fcPXa7yg3iF7Zx-aR-116" value="tartozik" style="rhombus;whiteSpace=wrap;html=1;" parent="1" vertex="1">
          <mxGeometry x="525" y="425" width="55" height="45" as="geometry" />
        </mxCell>
        <mxCell id="iR1NlopD8SsoDXJi6yZR-3" value="" style="endArrow=none;html=1;rounded=0;entryX=0.5;entryY=0;entryDx=0;entryDy=0;exitX=0.5;exitY=1;exitDx=0;exitDy=0;" parent="1" source="X91fcPXa7yg3iF7Zx-aR-52" target="t_jVDYr7bIxkMFcBrNz5-102" edge="1">
          <mxGeometry width="50" height="50" relative="1" as="geometry">
            <mxPoint x="265" y="395" as="sourcePoint" />
            <mxPoint x="190" y="390" as="targetPoint" />
            <Array as="points" />
          </mxGeometry>
        </mxCell>
        <mxCell id="iR1NlopD8SsoDXJi6yZR-6" value="" style="endArrow=none;html=1;rounded=0;entryX=0.5;entryY=1;entryDx=0;entryDy=0;exitX=0.5;exitY=0;exitDx=0;exitDy=0;" parent="1" source="X91fcPXa7yg3iF7Zx-aR-29" target="t_jVDYr7bIxkMFcBrNz5-82" edge="1">
          <mxGeometry width="50" height="50" relative="1" as="geometry">
            <mxPoint x="280" y="260" as="sourcePoint" />
            <mxPoint x="330" y="210" as="targetPoint" />
          </mxGeometry>
        </mxCell>
        <mxCell id="iR1NlopD8SsoDXJi6yZR-8" value="" style="endArrow=none;html=1;rounded=0;entryX=0.5;entryY=1;entryDx=0;entryDy=0;" parent="1" target="t_jVDYr7bIxkMFcBrNz5-68" edge="1">
          <mxGeometry width="50" height="50" relative="1" as="geometry">
            <mxPoint x="230" y="140" as="sourcePoint" />
            <mxPoint x="330" y="210" as="targetPoint" />
          </mxGeometry>
        </mxCell>
        <mxCell id="iR1NlopD8SsoDXJi6yZR-11" value="Friends" style="rounded=0;whiteSpace=wrap;html=1;" parent="1" vertex="1">
          <mxGeometry x="150" y="150" width="60" height="32.5" as="geometry" />
        </mxCell>
        <mxCell id="iR1NlopD8SsoDXJi6yZR-13" value="" style="endArrow=none;html=1;rounded=0;entryX=0.5;entryY=1;entryDx=0;entryDy=0;exitX=0.5;exitY=0;exitDx=0;exitDy=0;" parent="1" source="t_jVDYr7bIxkMFcBrNz5-54" target="t_jVDYr7bIxkMFcBrNz5-46" edge="1">
          <mxGeometry width="50" height="50" relative="1" as="geometry">
            <mxPoint x="126.5" y="307" as="sourcePoint" />
            <mxPoint x="101.5" y="270" as="targetPoint" />
          </mxGeometry>
        </mxCell>
        <mxCell id="iR1NlopD8SsoDXJi6yZR-14" value="" style="endArrow=none;html=1;rounded=0;entryX=1;entryY=0.5;entryDx=0;entryDy=0;exitX=0;exitY=0.5;exitDx=0;exitDy=0;" parent="1" source="t_jVDYr7bIxkMFcBrNz5-47" target="t_jVDYr7bIxkMFcBrNz5-46" edge="1">
          <mxGeometry width="50" height="50" relative="1" as="geometry">
            <mxPoint x="100" y="307" as="sourcePoint" />
            <mxPoint x="75" y="270" as="targetPoint" />
          </mxGeometry>
        </mxCell>
        <mxCell id="iR1NlopD8SsoDXJi6yZR-19" style="edgeStyle=orthogonalEdgeStyle;rounded=0;orthogonalLoop=1;jettySize=auto;html=1;exitX=1;exitY=0.5;exitDx=0;exitDy=0;entryX=0.25;entryY=0;entryDx=0;entryDy=0;" parent="1" source="iR1NlopD8SsoDXJi6yZR-16" target="t_jVDYr7bIxkMFcBrNz5-1" edge="1">
          <mxGeometry relative="1" as="geometry" />
        </mxCell>
        <mxCell id="iR1NlopD8SsoDXJi6yZR-16" value="elküldi" style="rhombus;whiteSpace=wrap;html=1;" parent="1" vertex="1">
          <mxGeometry x="225" y="165" width="55" height="40" as="geometry" />
        </mxCell>
        <mxCell id="iR1NlopD8SsoDXJi6yZR-18" style="edgeStyle=orthogonalEdgeStyle;rounded=0;orthogonalLoop=1;jettySize=auto;html=1;exitX=1;exitY=0.5;exitDx=0;exitDy=0;entryX=0;entryY=0.25;entryDx=0;entryDy=0;" parent="1" source="iR1NlopD8SsoDXJi6yZR-17" target="t_jVDYr7bIxkMFcBrNz5-1" edge="1">
          <mxGeometry relative="1" as="geometry" />
        </mxCell>
        <mxCell id="iR1NlopD8SsoDXJi6yZR-17" value="fogadja" style="rhombus;whiteSpace=wrap;html=1;" parent="1" vertex="1">
          <mxGeometry x="185" y="200" width="55" height="40" as="geometry" />
        </mxCell>
        <mxCell id="iR1NlopD8SsoDXJi6yZR-20" value="" style="endArrow=none;html=1;rounded=0;exitX=1;exitY=0.5;exitDx=0;exitDy=0;entryX=0;entryY=0.5;entryDx=0;entryDy=0;" parent="1" source="iR1NlopD8SsoDXJi6yZR-11" target="iR1NlopD8SsoDXJi6yZR-16" edge="1">
          <mxGeometry relative="1" as="geometry">
            <mxPoint x="160" y="179.9999999999999" as="sourcePoint" />
            <mxPoint x="147" y="205" as="targetPoint" />
            <Array as="points" />
          </mxGeometry>
        </mxCell>
        <mxCell id="iR1NlopD8SsoDXJi6yZR-21" value="" style="endArrow=none;html=1;rounded=0;exitX=0.5;exitY=1;exitDx=0;exitDy=0;entryX=0;entryY=0.5;entryDx=0;entryDy=0;" parent="1" source="iR1NlopD8SsoDXJi6yZR-11" target="iR1NlopD8SsoDXJi6yZR-17" edge="1">
          <mxGeometry relative="1" as="geometry">
            <mxPoint x="170" y="189.9999999999999" as="sourcePoint" />
            <mxPoint x="157" y="215" as="targetPoint" />
            <Array as="points" />
          </mxGeometry>
        </mxCell>
        <mxCell id="iR1NlopD8SsoDXJi6yZR-28" value="" style="endArrow=none;html=1;rounded=0;entryX=0;entryY=0.5;entryDx=0;entryDy=0;exitX=1;exitY=0.5;exitDx=0;exitDy=0;" parent="1" source="t_jVDYr7bIxkMFcBrNz5-102" target="X91fcPXa7yg3iF7Zx-aR-116" edge="1">
          <mxGeometry width="50" height="50" relative="1" as="geometry">
            <mxPoint x="480" y="375" as="sourcePoint" />
            <mxPoint x="505" y="330" as="targetPoint" />
            <Array as="points" />
          </mxGeometry>
        </mxCell>
      </root>
    </mxGraphModel>
  </diagram>
</mxfile>
